<svg width="48" height="48" viewBox="0 0 48 48" fill="none" xmlns="http://www.w3.org/2000/svg">
<rect x="0.000488281" width="48" height="48" rx="24" fill="url(#paint0_radial_87_8656)"/>
<path d="M35.7504 18.1878L26.4785 35.8495C26.2794 36.2287 25.9737 36.5395 25.6001 36.7425C25.2265 36.9455 24.8018 37.0315 24.3798 36.9897C23.9579 36.9479 23.5577 36.7801 23.23 36.5076C22.9023 36.2351 22.6618 35.8701 22.539 35.459L20.391 28.2733C20.258 27.828 20.2698 27.3512 20.4247 26.9132C20.5796 26.4753 20.8693 26.0993 21.2512 25.841L29.8004 20.056C29.9127 19.9801 29.9925 19.8639 30.0238 19.7309C30.0552 19.5978 30.0357 19.4577 29.9694 19.3385C29.903 19.2194 29.7947 19.13 29.6661 19.0884C29.5375 19.0468 29.3981 19.0559 29.2758 19.114L19.9344 23.5448C19.555 23.7248 19.1318 23.788 18.7173 23.7267C18.3027 23.6654 17.9151 23.4822 17.6023 23.1999L12.7169 18.7886C12.3931 18.4962 12.1646 18.111 12.0616 17.684C11.9587 17.257 11.9862 16.8084 12.1405 16.3976C12.2948 15.9868 12.5687 15.6332 12.9258 15.3837C13.2829 15.1341 13.7064 15.0003 14.1402 15H33.8593C34.2288 15 34.592 15.0968 34.9137 15.2812C35.2353 15.4655 35.5043 15.7311 35.6947 16.052C35.885 16.3729 35.9901 16.7382 35.9998 17.1125C36.0094 17.4868 35.9233 17.8572 35.7498 18.1878H35.7504Z" fill="white"/>
<defs>
<radialGradient id="paint0_radial_87_8656" cx="0" cy="0" r="1" gradientUnits="userSpaceOnUse" gradientTransform="translate(40.7163 9.71533) rotate(135) scale(48.0833 47.355)">
<stop stop-color="#FFBBCC"/>
<stop offset="0.507212" stop-color="#FF6693"/>
<stop offset="0.84375" stop-color="#FF5192"/>
<stop offset="1" stop-color="#CABDFF"/>
</radialGradient>
</defs>
</svg>
