<?xml version="1.0" standalone="no"?><!DOCTYPE svg PUBLIC "-//W3C//DTD SVG 1.1//EN" "http://www.w3.org/Graphics/SVG/1.1/DTD/svg11.dtd"><svg t="1680794992079" class="icon" viewBox="0 0 1024 1024" version="1.1" xmlns="http://www.w3.org/2000/svg" p-id="4566" xmlns:xlink="http://www.w3.org/1999/xlink" width="200" height="200"><path d="M408.006 110c29.849 6.049 269.77 68.924 269.77 305.98 10.898-35.15 47.734-89.28 94.8-89.28-13.742 26.954-17.047 101.157 24.02 162.88 41.066 61.722 85.34 283.543-107.823 384.79l-3.48 0.654C637.323 900.095 577.268 915 512.095 915c-104.276 0-195.45-38.156-244.985-95.06-84.544-75.553-97.716-200.033-39.515-373.44 16.817 6.986 34.851 42.28 34.851 61.89 2.437-11.973 13.658-78.627 101.597-167.563 87.94-88.937 81.253-192.88 43.963-230.827z" fill="#ffffff" p-id="4567"></path></svg>
