<svg width="25" height="24" viewBox="0 0 25 24" fill="none" xmlns="http://www.w3.org/2000/svg">
<g clip-path="url(#clip0_622_8355)">
<path d="M7.22983 23.6884C7.09485 23.6892 6.96104 23.6643 6.83608 23.6152C6.71112 23.5661 6.59746 23.4937 6.50163 23.4022C6.40549 23.3104 6.32919 23.2013 6.27712 23.081C6.22505 22.9607 6.19824 22.8317 6.19824 22.7014C6.19824 22.5711 6.22505 22.4421 6.27712 22.3218C6.32919 22.2016 6.40549 22.0924 6.50163 22.0007L14.8811 13.9368C15.4573 13.3816 15.781 12.629 15.781 11.8443C15.781 11.0596 15.4573 10.307 14.8811 9.75182L6.50163 1.68792C6.30849 1.50207 6.19999 1.24999 6.19999 0.987145C6.19999 0.724302 6.30849 0.472224 6.50163 0.286366C6.69476 0.100508 6.9567 -0.00390625 7.22983 -0.00390625C7.50296 -0.00390625 7.7649 0.100508 7.95804 0.286366L16.3375 8.35026C16.8151 8.80869 17.194 9.35328 17.4525 9.95284C17.7111 10.5524 17.8441 11.1952 17.8441 11.8443C17.8441 12.4934 17.7111 13.1362 17.4525 13.7357C17.194 14.3353 16.8151 14.8799 16.3375 15.3383L7.95804 23.4022C7.8622 23.4937 7.74854 23.5661 7.62358 23.6152C7.49862 23.6643 7.36481 23.6892 7.22983 23.6884Z" fill="white"/>
</g>
<defs>
<clipPath id="clip0_622_8355">
<rect width="24.6154" height="23.6883" fill="white" transform="translate(0.0507812)"/>
</clipPath>
</defs>
</svg>
