<svg width="47" height="24" viewBox="0 0 47 24" fill="none" xmlns="http://www.w3.org/2000/svg">
<path d="M0 16C0 7.16344 7.16344 0 16 0H47V8C47 16.8366 39.8366 24 31 24H0V16Z" fill="#3A50FF"/>
<path d="M9.288 7.284H11.262L15.686 15.348H15.77V7.284H17.03V17H15.364L10.604 8.446H10.52V17H9.288V7.284ZM25.3643 15.866V17H19.6103V7.284H25.0143V8.404H20.8703V11.414H24.7343V12.478H20.8703V15.866H25.3643ZM26.4656 7.284H27.7816L29.6016 15.53H29.6856L31.6596 8.418H33.1716L35.1456 15.53H35.2296L37.0356 7.284H38.3096L35.9996 17H34.4036L32.4296 9.804H32.3456L30.3296 17H28.7336L26.4656 7.284Z" fill="white"/>
</svg>
