<svg width="15" height="15" viewBox="0 0 15 15" fill="none" xmlns="http://www.w3.org/2000/svg">
<path d="M0.829862 7.74845L3.05486 9.37345L2.20986 11.9903C2.07331 12.3962 2.07158 12.8353 2.20493 13.2423C2.33828 13.6492 2.59958 14.0021 2.94986 14.2484C3.29414 14.5027 3.71136 14.6389 4.13933 14.6367C4.56731 14.6346 4.98314 14.4942 5.32486 14.2366L7.50049 12.6353L9.67674 14.2347C10.0204 14.4875 10.4354 14.6248 10.862 14.6269C11.2886 14.6289 11.7049 14.4957 12.051 14.2463C12.3971 13.9968 12.6552 13.6441 12.7882 13.2387C12.9212 12.8334 12.9222 12.3963 12.7911 11.9903L11.9461 9.37345L14.1711 7.74845C14.5143 7.49751 14.7695 7.14454 14.9001 6.73994C15.0307 6.33534 15.0301 5.89981 14.8984 5.49556C14.7667 5.09131 14.5106 4.73902 14.1667 4.48901C13.8229 4.239 13.4088 4.10405 12.9836 4.10345H10.2505L9.42111 1.51845C9.29069 1.11154 9.0344 0.756579 8.68922 0.504736C8.34403 0.252894 7.92778 0.117188 7.50049 0.117188C7.07319 0.117187 6.65694 0.252894 6.31176 0.504736C5.96657 0.756579 5.71029 1.11154 5.57986 1.51845L4.75049 4.10345H2.01986C1.5947 4.10405 1.18061 4.239 0.836724 4.48901C0.492842 4.73902 0.236762 5.09131 0.105063 5.49556C-0.0266369 5.89981 -0.0272199 6.33534 0.103397 6.73994C0.234014 7.14454 0.48915 7.49751 0.832362 7.74845H0.829862Z" fill="#FFC700"/>
</svg>
