<svg width="25" height="25" viewBox="0 0 25 25" fill="none" xmlns="http://www.w3.org/2000/svg">
<path d="M7.70116 4.66603L2.69629 12.5625L11.9006 21.7668L19.797 16.7619L14.3064 15.4108L16.2232 8.5347L9.11623 10.2206L7.70116 4.66603Z" fill="#FFA841"/>
<path d="M7.70117 4.66602L2.6963 12.5625L11.9006 21.7667L10.0318 14.1566L9.18643 10.5165L7.70117 4.66602Z" fill="url(#paint0_linear_87_7003)"/>
<path d="M19.797 16.7619L11.9006 21.7667C11.9006 21.7667 9.52792 20.5534 6.81339 17.8389C4.09887 15.1244 2.6963 12.5625 2.6963 12.5625L19.797 16.7619Z" fill="url(#paint1_linear_87_7003)"/>
<path d="M8.86969 5.07209C8.67628 5.26562 8.41387 5.37431 8.14026 5.37423C7.86666 5.37415 7.60431 5.26531 7.41101 5.07167C7.21752 4.87835 7.1088 4.61605 7.1088 4.34254C7.1088 4.06903 7.21752 3.80673 7.41101 3.61341C7.60431 3.41988 7.86661 3.31115 8.14014 3.31115C8.41366 3.31115 8.67597 3.41988 8.86927 3.61341C9.06294 3.80669 9.17181 4.06905 9.17189 4.34266C9.17197 4.61628 9.06325 4.8787 8.86969 5.07209Z" fill="url(#paint2_radial_87_7003)"/>
<path fill-rule="evenodd" clip-rule="evenodd" d="M19.3664 17.027L19.1021 16.5952L15.2669 15.658L17.995 16.8207L11.1463 17.636L11.9006 21.7664L19.3664 17.027Z" fill="url(#paint3_linear_87_7003)"/>
<path fill-rule="evenodd" clip-rule="evenodd" d="M7.41101 5.07196L7.87412 5.33701L8.92106 9.44893L7.62578 6.70893L6.81054 13.5576L2.69632 12.5623L7.41101 5.07196Z" fill="url(#paint4_linear_87_7003)"/>
<path fill-rule="evenodd" clip-rule="evenodd" d="M15.2155 8.76535L9.11636 10.2206L10.0489 14.4142L15.5513 9.10107L15.2155 8.76535Z" fill="url(#paint5_linear_87_7003)"/>
<path d="M20.7647 16.9676C20.5713 17.1612 20.3089 17.2699 20.0353 17.2699C19.7617 17.2698 19.4993 17.1609 19.3061 16.9672C19.1126 16.774 19.004 16.5117 19.0041 16.2382C19.0041 15.9648 19.113 15.7026 19.3065 15.5094C19.4997 15.3158 19.7619 15.207 20.0353 15.207C20.3088 15.2069 20.5711 15.3155 20.7644 15.509C20.9581 15.7022 21.0669 15.9646 21.067 16.2382C21.0671 16.5118 20.9583 16.7742 20.7647 16.9676Z" fill="url(#paint6_radial_87_7003)"/>
<path d="M17.9246 9.31375C17.2576 9.98069 16.1776 9.98037 15.5109 9.31366C14.8444 8.64713 14.844 7.5671 15.511 6.90015C16.1779 6.23321 17.2579 6.23353 17.9245 6.90006C18.5913 7.56687 18.5914 8.64689 17.9246 9.31375Z" fill="url(#paint7_radial_87_7003)"/>
<defs>
<linearGradient id="paint0_linear_87_7003" x1="14.2206" y1="20.5792" x2="19.026" y2="10.7521" gradientUnits="userSpaceOnUse">
<stop stop-color="#FFDE76"/>
<stop offset="1" stop-color="#FFB42E"/>
</linearGradient>
<linearGradient id="paint1_linear_87_7003" x1="10.0278" y1="20.7276" x2="19.678" y2="18.208" gradientUnits="userSpaceOnUse">
<stop stop-color="#FFDE76"/>
<stop offset="1" stop-color="#FDA200"/>
</linearGradient>
<radialGradient id="paint2_radial_87_7003" cx="0" cy="0" r="1" gradientUnits="userSpaceOnUse" gradientTransform="translate(8.86948 3.61362) rotate(135) scale(2.06229 2.06289)">
<stop stop-color="#FFE4B4"/>
<stop offset="1" stop-color="#FF8D06"/>
</radialGradient>
<linearGradient id="paint3_linear_87_7003" x1="20.4549" y1="12.9958" x2="13.5165" y2="11.2297" gradientUnits="userSpaceOnUse">
<stop stop-color="#FF7800"/>
<stop offset="1" stop-color="#FECC52"/>
</linearGradient>
<linearGradient id="paint4_linear_87_7003" x1="10.1992" y1="3.87947" x2="11.8991" y2="8.06017" gradientUnits="userSpaceOnUse">
<stop stop-color="#FF7800"/>
<stop offset="1" stop-color="#FECC52"/>
</linearGradient>
<linearGradient id="paint5_linear_87_7003" x1="14.1892" y1="7.35332" x2="8.58856" y2="12.9539" gradientUnits="userSpaceOnUse">
<stop stop-color="#FFDE99"/>
<stop offset="1" stop-color="#FFA841"/>
</linearGradient>
<radialGradient id="paint6_radial_87_7003" cx="0" cy="0" r="1" gradientUnits="userSpaceOnUse" gradientTransform="translate(20.7647 15.5094) rotate(135) scale(2.06229 2.06214)">
<stop stop-color="#FFECCA"/>
<stop offset="1" stop-color="#FF8D06"/>
</radialGradient>
<radialGradient id="paint7_radial_87_7003" cx="0" cy="0" r="1" gradientUnits="userSpaceOnUse" gradientTransform="translate(17.6283 7.19638) rotate(135) scale(3.41333)">
<stop stop-color="#FFF2DB"/>
<stop offset="1" stop-color="#FF8D06"/>
</radialGradient>
</defs>
</svg>
