<svg width="16" height="16" viewBox="0 0 16 16" fill="none" xmlns="http://www.w3.org/2000/svg">
<path d="M7.61198 0.227163C7.85164 0.0868591 8.14836 0.0868592 8.38802 0.227163L11.452 2.02096L14.5375 3.77755C14.7788 3.91494 14.9272 4.17192 14.9255 4.44961L14.904 8L14.9255 11.5504C14.9272 11.8281 14.7788 12.0851 14.5375 12.2225L11.452 13.979L8.38802 15.7728C8.14836 15.9131 7.85164 15.9131 7.61198 15.7728L4.548 13.979L1.46253 12.2225C1.2212 12.0851 1.07284 11.8281 1.07452 11.5504L1.096 8L1.07452 4.44961C1.07284 4.17192 1.2212 3.91494 1.46253 3.77755L4.548 2.02096L7.61198 0.227163Z" fill="#3A50FF"/>
<path d="M7.61198 0.227163C7.85164 0.0868591 8.14836 0.0868592 8.38802 0.227163L11.452 2.02096L14.5375 3.77755C14.7788 3.91494 14.9272 4.17192 14.9255 4.44961L14.904 8L14.9255 11.5504C14.9272 11.8281 14.7788 12.0851 14.5375 12.2225L11.452 13.979L8.38802 15.7728C8.14836 15.9131 7.85164 15.9131 7.61198 15.7728L4.548 13.979L1.46253 12.2225C1.2212 12.0851 1.07284 11.8281 1.07452 11.5504L1.096 8L1.07452 4.44961C1.07284 4.17192 1.2212 3.91494 1.46253 3.77755L4.548 2.02096L7.61198 0.227163Z" fill="url(#paint0_radial_87_7675)"/>
<g opacity="0.5" filter="url(#filter0_f_87_7675)">
<path d="M8.31372 3.48443C8.49429 3.23978 8.88249 3.37807 8.86772 3.68178L8.6074 9.03553C8.59944 9.1992 8.46442 9.32781 8.30056 9.32781H4.60929C4.35723 9.32781 4.21244 9.04098 4.36213 8.83818L8.31372 3.48443Z" fill="white"/>
<path d="M7.68702 12.5151C7.50645 12.7597 7.11825 12.6214 7.13301 12.3177L7.39333 6.96398C7.40129 6.80031 7.53631 6.6717 7.70017 6.6717L11.3914 6.6717C11.6435 6.6717 11.7883 6.95853 11.6386 7.16133L7.68702 12.5151Z" fill="white"/>
</g>
<path d="M8.31298 3.48443C8.49355 3.23978 8.88175 3.37807 8.86699 3.68178L8.60667 9.03553C8.59871 9.1992 8.46369 9.32781 8.29983 9.32781H4.60856C4.3565 9.32781 4.21171 9.04098 4.3614 8.83818L8.31298 3.48443Z" fill="white"/>
<path d="M7.68628 12.5151C7.50571 12.7597 7.11751 12.6214 7.13228 12.3177L7.3926 6.96398C7.40056 6.80031 7.53558 6.6717 7.69944 6.6717L11.3907 6.6717C11.6428 6.6717 11.7876 6.95853 11.6379 7.16133L7.68628 12.5151Z" fill="white"/>
<rect opacity="0.5" x="3.3335" y="4" width="4" height="0.666667" rx="0.333333" transform="rotate(-30 3.3335 4)" fill="white"/>
<defs>
<filter id="filter0_f_87_7675" x="1.10151" y="0.158887" width="13.7977" height="15.6817" filterUnits="userSpaceOnUse" color-interpolation-filters="sRGB">
<feFlood flood-opacity="0" result="BackgroundImageFix"/>
<feBlend mode="normal" in="SourceGraphic" in2="BackgroundImageFix" result="shape"/>
<feGaussianBlur stdDeviation="1.6" result="effect1_foregroundBlur_87_7675"/>
</filter>
<radialGradient id="paint0_radial_87_7675" cx="0" cy="0" r="1" gradientUnits="userSpaceOnUse" gradientTransform="translate(5 3.33333) rotate(59.3003) scale(12.4052)">
<stop stop-color="#4DFFDF"/>
<stop offset="0.785863" stop-color="#3A50FF"/>
<stop offset="0.999584" stop-color="#596CFF"/>
</radialGradient>
</defs>
</svg>
