<svg width="40" height="20" viewBox="0 0 40 20" fill="none" xmlns="http://www.w3.org/2000/svg">
<path d="M32.5 0H7.5C5.51088 0 3.60322 0.790175 2.1967 2.1967C0.790176 3.60322 0 5.51088 0 7.5V12.5C0 13.4849 0.193993 14.4602 0.570903 15.3701C0.947814 16.2801 1.50026 17.1069 2.1967 17.8033C3.60322 19.2098 5.51088 20 7.5 20H32.5C33.4849 20 34.4602 19.806 35.3701 19.4291C36.2801 19.0522 37.1069 18.4997 37.8033 17.8033C38.4997 17.1069 39.0522 16.2801 39.4291 15.3701C39.806 14.4602 40 13.4849 40 12.5V7.5C40 5.51088 39.2098 3.60322 37.8033 2.1967C36.3968 0.790175 34.4891 0 32.5 0ZM12.2625 16.25H12.125C11.8683 16.2204 11.6271 16.1119 11.4346 15.9395C11.2421 15.7672 11.1077 15.5394 11.05 15.2875L8.775 5.2875C8.73889 5.12335 8.73546 4.95369 8.76491 4.78821C8.79437 4.62274 8.85613 4.46468 8.94666 4.32307C9.12951 4.03708 9.41848 3.83543 9.75 3.7625C10.0815 3.68957 10.4284 3.75131 10.7144 3.93416C11.0004 4.11701 11.2021 4.40598 11.275 4.7375L12.7 11.25L16.0125 4.45C16.0768 4.29061 16.1733 4.1462 16.296 4.02579C16.4186 3.90538 16.5648 3.81155 16.7253 3.75018C16.8858 3.6888 17.0573 3.66119 17.229 3.66907C17.4007 3.67696 17.5689 3.72016 17.7232 3.79599C17.8774 3.87182 18.0144 3.97864 18.1255 4.10978C18.2365 4.24092 18.3194 4.39357 18.3688 4.55818C18.4183 4.72279 18.4333 4.89582 18.4128 5.06648C18.3924 5.23713 18.3369 5.40173 18.25 5.55L13.3875 15.55C13.2844 15.7604 13.1243 15.9376 12.9254 16.0613C12.7265 16.1851 12.4968 16.2505 12.2625 16.25ZM20.35 15.2125C20.2994 15.506 20.1457 15.7718 19.9165 15.962C19.6873 16.1522 19.3978 16.2543 19.1 16.25C19.0255 16.2624 18.9495 16.2624 18.875 16.25C18.5509 16.192 18.2629 16.0085 18.0733 15.7394C17.8837 15.4702 17.808 15.1372 17.8625 14.8125L19.625 4.8125C19.6814 4.48098 19.8671 4.18543 20.1414 3.99086C20.4156 3.79629 20.756 3.71864 21.0875 3.775C21.419 3.83136 21.7146 4.0171 21.9091 4.29138C22.1037 4.56565 22.1814 4.90598 22.125 5.2375L20.35 15.2125ZM31.675 7.7125C31.4871 8.68997 30.9705 9.57378 30.2111 10.2172C29.4517 10.8607 28.4951 11.2251 27.5 11.25H26.05L25.35 15.2125C25.2994 15.506 25.1457 15.7718 24.9165 15.962C24.6873 16.1522 24.3978 16.2543 24.1 16.25C24.0255 16.2624 23.9495 16.2624 23.875 16.25C23.5509 16.192 23.2629 16.0085 23.0733 15.7394C22.8837 15.4702 22.808 15.1372 22.8625 14.8125L23.75 9.8125C23.7952 9.51443 23.9466 9.24275 24.1763 9.0475C24.406 8.85225 24.6985 8.74659 25 8.75H27.5C27.9053 8.72457 28.2914 8.56823 28.6003 8.30449C28.9091 8.04074 29.124 7.68385 29.2125 7.2875C29.2443 7.15635 29.2462 7.01973 29.2181 6.88774C29.19 6.75575 29.1325 6.63178 29.05 6.525C28.9668 6.43296 28.8643 6.36054 28.7497 6.31298C28.6351 6.26542 28.5114 6.24391 28.3875 6.25H25.8875C25.556 6.25 25.238 6.1183 25.0036 5.88388C24.7692 5.64946 24.6375 5.33152 24.6375 5C24.6375 4.66848 24.7692 4.35054 25.0036 4.11612C25.238 3.8817 25.556 3.75 25.8875 3.75H28.3875C28.8756 3.74367 29.3592 3.84448 29.8041 4.04534C30.249 4.2462 30.6444 4.54221 30.9625 4.9125C31.2788 5.29869 31.5066 5.74958 31.6297 6.23337C31.7528 6.71717 31.7683 7.22208 31.675 7.7125Z" fill="#3A50FF"/>
</svg>
