<svg width="58" height="58" viewBox="0 0 58 58" fill="none" xmlns="http://www.w3.org/2000/svg">
<path fill-rule="evenodd" clip-rule="evenodd" d="M39.0254 21.8521C46.9891 21.8521 54.0238 27.5897 54.0238 34.7208C54.0238 38.4964 51.61 41.8544 48.3613 44.4809C48.0399 44.7408 47.898 45.1666 48.0138 45.5634L48.4358 47.0099C48.6862 47.8684 47.7699 48.5989 46.9887 48.1633L44.6549 46.8618C44.4299 46.7363 44.1652 46.7027 43.9158 46.7674C42.2845 47.1909 40.6574 47.5896 39.0254 47.5896C30.5973 47.5896 23.9307 41.8519 23.9307 34.7208C23.9307 27.686 30.5973 21.8521 39.0254 21.8521Z" fill="url(#paint0_radial_87_7603)"/>
<path fill-rule="evenodd" clip-rule="evenodd" d="M38.1053 20.9232L37.9096 20.923C29.4871 20.923 22.9111 27.2215 22.9055 34.9076C22.9055 35.7987 22.9937 36.6443 23.1683 37.4775C23.2944 38.0794 22.9075 38.6862 22.2926 38.6985C22.092 38.7025 21.8956 38.7025 21.6993 38.7025H21.699C19.7963 38.7025 18.2305 38.3656 16.4242 37.9769C16.2305 37.9353 16.0341 37.893 15.8343 37.8505C15.6159 37.8041 15.3881 37.8329 15.1877 37.9315L11.4428 39.7749C10.646 40.1671 9.77147 39.4035 10.0526 38.5611L10.8182 36.2668C10.9592 35.8442 10.8017 35.3809 10.4434 35.1161C6.3779 32.1109 4.02148 28.1964 4.02148 23.6078C4.02148 15.276 11.9852 8.60938 21.7047 8.60938C29.822 8.60938 36.9742 13.1989 39.1757 19.5954C39.4056 20.2636 38.8119 20.9248 38.1053 20.9232Z" fill="url(#paint1_radial_87_7603)"/>
<circle cx="33" cy="34" r="2" fill="white"/>
<circle cx="15" cy="21" r="2" fill="white"/>
<circle cx="39" cy="34" r="2" fill="white"/>
<circle cx="22" cy="21" r="2" fill="white"/>
<circle cx="45" cy="34" r="2" fill="white"/>
<circle cx="29" cy="21" r="2" fill="white"/>
<path opacity="0.3" d="M10 16.5002C11.3333 14.6669 15.4 11.2002 21 12.0002" stroke="white" stroke-width="1.3" stroke-linecap="round"/>
<path opacity="0.3" d="M30 27.9998C31.3333 26.4998 35 23.6998 39 24.4998" stroke="white" stroke-width="1.3" stroke-linecap="round"/>
<defs>
<radialGradient id="paint0_radial_87_7603" cx="0" cy="0" r="1" gradientUnits="userSpaceOnUse" gradientTransform="translate(42.957 27.096) rotate(100.633) scale(21.5675 24.4961)">
<stop stop-color="#7DFFF7"/>
<stop offset="0.837341" stop-color="#10E070"/>
<stop offset="1" stop-color="#44F328"/>
</radialGradient>
<radialGradient id="paint1_radial_87_7603" cx="0" cy="0" r="1" gradientUnits="userSpaceOnUse" gradientTransform="translate(26.2794 14.8113) rotate(100.521) scale(25.4981 28.6673)">
<stop stop-color="#7DFFF7"/>
<stop offset="0.837341" stop-color="#10E070"/>
<stop offset="1" stop-color="#44F328"/>
</radialGradient>
</defs>
</svg>
