<svg width="59" height="57" viewBox="0 0 59 57" fill="none" xmlns="http://www.w3.org/2000/svg">
<g opacity="0.2" filter="url(#filter0_f_87_7618)">
<ellipse cx="27.5" cy="48.5" rx="23.5" ry="4.5" fill="#000739"/>
</g>
<path d="M24.515 0.283954C24.8145 0.108574 25.1855 0.108574 25.485 0.283954L35.356 6.06288L45.2962 11.7219C45.5979 11.8937 45.7833 12.2149 45.7812 12.562L45.712 24L45.7812 35.438C45.7833 35.7851 45.5979 36.1063 45.2962 36.2781L35.356 41.9371L25.485 47.716C25.1855 47.8914 24.8145 47.8914 24.515 47.716L14.644 41.9371L4.70381 36.2781C4.40215 36.1063 4.21669 35.7851 4.21879 35.438L4.288 24L4.21879 12.562C4.21669 12.2149 4.40215 11.8937 4.70381 11.7219L14.644 6.06288L24.515 0.283954Z" fill="#3A50FF"/>
<path d="M24.515 0.283954C24.8145 0.108574 25.1855 0.108574 25.485 0.283954L35.356 6.06288L45.2962 11.7219C45.5979 11.8937 45.7833 12.2149 45.7812 12.562L45.712 24L45.7812 35.438C45.7833 35.7851 45.5979 36.1063 45.2962 36.2781L35.356 41.9371L25.485 47.716C25.1855 47.8914 24.8145 47.8914 24.515 47.716L14.644 41.9371L4.70381 36.2781C4.40215 36.1063 4.21669 35.7851 4.21879 35.438L4.288 24L4.21879 12.562C4.21669 12.2149 4.40215 11.8937 4.70381 11.7219L14.644 6.06288L24.515 0.283954Z" fill="url(#paint0_radial_87_7618)"/>
<g opacity="0.5" filter="url(#filter1_f_87_7618)">
<path d="M26.9968 9.02179C27.2225 8.71599 27.7077 8.88885 27.6893 9.26848L26.7971 27.6171C26.7871 27.8217 26.6184 27.9825 26.4135 27.9825H13.7627C13.4476 27.9825 13.2666 27.6239 13.4537 27.3704L26.9968 9.02179Z" fill="white"/>
<path d="M23.0052 38.9763C22.7795 39.2821 22.2942 39.1092 22.3127 38.7296L23.2049 20.3809C23.2148 20.1764 23.3836 20.0156 23.5884 20.0156L36.2393 20.0156C36.5544 20.0156 36.7354 20.3741 36.5483 20.6276L23.0052 38.9763Z" fill="white"/>
</g>
<path d="M26.9948 9.02179C27.2205 8.71599 27.7058 8.88885 27.6873 9.26848L26.7951 27.6171C26.7852 27.8217 26.6164 27.9825 26.4116 27.9825H13.7607C13.4456 27.9825 13.2646 27.6239 13.4517 27.3704L26.9948 9.02179Z" fill="white"/>
<path d="M23.0032 38.9763C22.7775 39.2821 22.2923 39.1092 22.3107 38.7296L23.2029 20.3809C23.2129 20.1764 23.3816 20.0156 23.5865 20.0156L36.2373 20.0156C36.5524 20.0156 36.7334 20.3741 36.5463 20.6276L23.0032 38.9763Z" fill="white"/>
<rect opacity="0.5" x="11" y="12" width="12" height="2" rx="1" transform="rotate(-30 11 12)" fill="white"/>
<g filter="url(#filter2_d_87_7618)">
<path d="M42.1951 14.6941C42.5298 14.6023 42.8881 14.6983 43.132 14.9452L48.3597 20.2365L53.6509 25.4641C53.8979 25.7081 53.9939 26.0663 53.902 26.4011L51.9334 33.574L50.0518 40.7702C49.964 41.106 49.7017 41.3683 49.3659 41.4561L42.1697 43.3377L34.9968 45.3063C34.6621 45.3982 34.3038 45.3022 34.0598 45.0552L28.8322 39.7639L23.5409 34.5363C23.294 34.2924 23.198 33.9341 23.2899 33.5993L25.2584 26.4264L27.1401 19.2303C27.2279 18.8944 27.4901 18.6321 27.826 18.5443L35.0222 16.6627L42.1951 14.6941Z" fill="#3A50FF"/>
<path d="M42.1951 14.6941C42.5298 14.6023 42.8881 14.6983 43.132 14.9452L48.3597 20.2365L53.6509 25.4641C53.8979 25.7081 53.9939 26.0663 53.902 26.4011L51.9334 33.574L50.0518 40.7702C49.964 41.106 49.7017 41.3683 49.3659 41.4561L42.1697 43.3377L34.9968 45.3063C34.6621 45.3982 34.3038 45.3022 34.0598 45.0552L28.8322 39.7639L23.5409 34.5363C23.294 34.2924 23.198 33.9341 23.2899 33.5993L25.2584 26.4264L27.1401 19.2303C27.2279 18.8944 27.4901 18.6321 27.826 18.5443L35.0222 16.6627L42.1951 14.6941Z" fill="url(#paint1_radial_87_7618)"/>
<g opacity="0.5" filter="url(#filter3_f_87_7618)">
<path d="M42.1353 20.9636C42.4325 20.7266 42.8564 21.0192 42.7403 21.3811L39.1664 32.5236C39.1038 32.7186 38.8992 32.8302 38.7013 32.7772L30.9175 30.6916C30.6132 30.61 30.5311 30.2168 30.7775 30.0204L42.1353 20.9636Z" fill="white"/>
<path d="M35.0586 39.0359C34.7614 39.2729 34.3374 38.9803 34.4535 38.6184L38.0275 27.4759C38.09 27.2809 38.2947 27.1693 38.4925 27.2223L46.2763 29.308C46.5807 29.3895 46.6627 29.7827 46.4164 29.9791L35.0586 39.0359Z" fill="white"/>
</g>
<path d="M42.1338 20.9631C42.431 20.7262 42.855 21.0187 42.7389 21.3806L39.1649 32.5231C39.1024 32.7181 38.8977 32.8297 38.6999 32.7767L30.916 30.6911C30.6117 30.6095 30.5297 30.2164 30.776 30.0199L42.1338 20.9631Z" fill="white"/>
<path d="M35.0568 39.0354C34.7597 39.2724 34.3357 38.9798 34.4518 38.6179L38.0258 27.4754C38.0883 27.2804 38.2929 27.1688 38.4908 27.2218L46.2746 29.3075C46.579 29.389 46.661 29.7822 46.4147 29.9786L35.0568 39.0354Z" fill="white"/>
<rect opacity="0.5" x="31.6511" y="19.8569" width="8" height="1.33333" rx="0.666667" transform="rotate(-15 31.6511 19.8569)" fill="white"/>
</g>
<defs>
<filter id="filter0_f_87_7618" x="0" y="40" width="55" height="17" filterUnits="userSpaceOnUse" color-interpolation-filters="sRGB">
<feFlood flood-opacity="0" result="BackgroundImageFix"/>
<feBlend mode="normal" in="SourceGraphic" in2="BackgroundImageFix" result="shape"/>
<feGaussianBlur stdDeviation="2" result="effect1_foregroundBlur_87_7618"/>
</filter>
<filter id="filter1_f_87_7618" x="9.37793" y="4.86475" width="31.2461" height="38.2686" filterUnits="userSpaceOnUse" color-interpolation-filters="sRGB">
<feFlood flood-opacity="0" result="BackgroundImageFix"/>
<feBlend mode="normal" in="SourceGraphic" in2="BackgroundImageFix" result="shape"/>
<feGaussianBlur stdDeviation="2" result="effect1_foregroundBlur_87_7618"/>
</filter>
<filter id="filter2_d_87_7618" x="15.2556" y="14.6597" width="38.6807" height="38.6807" filterUnits="userSpaceOnUse" color-interpolation-filters="sRGB">
<feFlood flood-opacity="0" result="BackgroundImageFix"/>
<feColorMatrix in="SourceAlpha" type="matrix" values="0 0 0 0 0 0 0 0 0 0 0 0 0 0 0 0 0 0 127 0" result="hardAlpha"/>
<feOffset dx="-4" dy="4"/>
<feGaussianBlur stdDeviation="2"/>
<feComposite in2="hardAlpha" operator="out"/>
<feColorMatrix type="matrix" values="0 0 0 0 0 0 0 0 0 0.0306666 0 0 0 0 0.766667 0 0 0 0.25 0"/>
<feBlend mode="normal" in2="BackgroundImageFix" result="effect1_dropShadow_87_7618"/>
<feBlend mode="normal" in="SourceGraphic" in2="effect1_dropShadow_87_7618" result="shape"/>
</filter>
<filter id="filter3_f_87_7618" x="26.6328" y="16.8779" width="23.9282" height="26.2437" filterUnits="userSpaceOnUse" color-interpolation-filters="sRGB">
<feFlood flood-opacity="0" result="BackgroundImageFix"/>
<feBlend mode="normal" in="SourceGraphic" in2="BackgroundImageFix" result="shape"/>
<feGaussianBlur stdDeviation="2" result="effect1_foregroundBlur_87_7618"/>
</filter>
<radialGradient id="paint0_radial_87_7618" cx="0" cy="0" r="1" gradientUnits="userSpaceOnUse" gradientTransform="translate(16 10) rotate(59.3003) scale(37.2156)">
<stop stop-color="#4DFFDF"/>
<stop offset="0.785863" stop-color="#3A50FF"/>
<stop offset="0.999584" stop-color="#596CFF"/>
</radialGradient>
<radialGradient id="paint1_radial_87_7618" cx="0" cy="0" r="1" gradientUnits="userSpaceOnUse" gradientTransform="translate(35.216 19.432) rotate(74.3003) scale(24.8104)">
<stop stop-color="#4DFFDF"/>
<stop offset="0.785863" stop-color="#3A50FF"/>
<stop offset="0.999584" stop-color="#596CFF"/>
</radialGradient>
</defs>
</svg>
