<svg width="53" height="53" viewBox="0 0 53 53" fill="none" xmlns="http://www.w3.org/2000/svg">
<path fill-rule="evenodd" clip-rule="evenodd" d="M46.0276 20.7033C46.1929 21.2 46.8552 21.8623 47.6827 22.5244L47.6848 22.5262C48.8423 23.5186 50 24.5112 50 26C50 27.4891 48.8419 28.4819 47.6841 29.4744L47.6827 29.4756C47.0205 29.9723 46.1929 30.8 46.0276 31.2968C45.8622 31.9587 46.1926 32.951 46.5231 33.9435L46.5235 33.9448C47.0205 35.4346 47.5172 36.9244 46.8551 38.0826C46.1934 39.2407 44.7058 39.5718 43.2173 39.903L43.2133 39.9039L43.2125 39.9041C42.2199 40.0694 41.2273 40.2347 40.7306 40.7315C40.2346 41.2282 40.0685 42.2211 39.9031 43.2141C39.5725 44.7039 39.241 46.1936 38.0827 46.8558C36.9236 47.3519 35.4338 47.0204 33.9449 46.5244C32.9512 46.1936 31.7929 45.8623 31.2969 46.0274C30.8 46.1936 30.1378 46.8559 29.4756 47.6834C28.4828 48.8417 27.489 50 26 50C24.5102 50 23.5166 48.8418 22.5237 47.6834C22.0277 47.0205 21.1993 46.1936 20.7032 46.0274C20.042 45.8625 19.0509 46.1927 18.0595 46.523L18.0551 46.5244C16.5653 47.0204 14.9103 47.5173 13.9174 46.8558C12.7592 46.194 12.4281 44.706 12.0969 43.2173L12.0961 43.2141C11.9308 42.2212 11.7647 41.2282 11.2685 40.7315C10.7718 40.2347 9.77918 40.0694 8.78648 39.904L8.78588 39.9039L8.78208 39.9031C7.29361 39.5718 5.80577 39.2407 5.14414 38.0826C4.51257 36.8188 4.93636 35.5542 5.40845 34.1455C5.43076 34.0789 5.45319 34.012 5.47562 33.9448L5.47764 33.9387C5.80768 32.9479 6.13755 31.9577 5.97245 31.2968C5.80633 30.8 5.14414 30.1377 4.3166 29.4756C3.15826 28.4828 2 27.4897 2 26C2 24.5104 3.15813 23.5175 4.31632 22.5246L4.31651 22.5244C4.9787 22.0277 5.80624 21.2001 5.97236 20.7033C6.13751 20.0427 5.80707 19.0506 5.47676 18.0589L5.47553 18.0552C5.4531 17.988 5.43068 17.9211 5.40836 17.8545C4.93627 16.4458 4.51249 15.1813 5.14406 13.9174C5.97228 12.7583 7.46133 12.4276 8.95115 12.2623C9.30232 12.1454 9.65339 12.0491 9.98251 11.9588C10.5847 11.7936 11.1133 11.6485 11.4346 11.4346C11.6477 11.1143 11.7924 10.5866 11.9573 9.98551C12.0477 9.65568 12.1442 9.30378 12.2614 8.95197C12.4275 7.46226 12.7582 5.97247 13.9173 5.14494C15.0756 4.64812 16.5652 4.97958 18.0551 5.47565C19.048 5.80712 20.2063 6.13782 20.7031 5.97247C21.1991 5.80712 21.8621 5.14494 22.5236 4.31741C23.5165 3.15832 24.5101 2 26 2C27.489 2 28.4827 3.15832 29.4756 4.31749C29.9724 4.97967 30.8 5.8072 31.2969 5.97255C31.9582 6.13791 32.9512 5.8072 33.9449 5.47573C35.4338 4.97967 37.089 4.48285 38.0827 5.14502C39.241 5.8072 39.5725 7.29623 39.9031 8.78602C40.0685 9.77891 40.2346 10.7726 40.7306 11.2695C41.2275 11.7654 42.2204 11.9316 43.2133 12.0969C44.7031 12.4276 46.1929 12.7583 46.8551 13.9174C47.4871 15.1807 47.0633 16.4448 46.5913 17.8528C46.5688 17.9199 46.5462 17.9874 46.5235 18.0552C46.1929 19.0481 45.8622 20.0418 46.0276 20.7033Z" fill="url(#paint0_radial_87_6984)"/>
<path d="M11.994 21.284H15.746L18.252 27.78H18.336V21.284H20.758V31H17.328L14.528 24.084H14.444V31H11.994V21.284ZM29.0261 28.858V31H22.7401V21.284H28.9001V23.426H25.2181V25.022H28.6061V27.08H25.2181V28.858H29.0261ZM29.8721 21.284H32.4621L33.6941 28.032H33.7781L35.0661 22.138H37.9081L39.0841 28.032H39.1681L40.4421 21.284H43.0181L40.8201 31H37.7261L36.4241 25.26H36.3401L35.0101 31H31.9161L29.8721 21.284Z" fill="white"/>
<defs>
<radialGradient id="paint0_radial_87_6984" cx="0" cy="0" r="1" gradientUnits="userSpaceOnUse" gradientTransform="translate(27 15) rotate(96.7536) scale(38.2655 38.2649)">
<stop stop-color="#FFC0CF"/>
<stop offset="0.526042" stop-color="#FF5185"/>
<stop offset="1" stop-color="#FF51AF"/>
</radialGradient>
</defs>
</svg>
