<svg width="20" height="20" viewBox="0 0 20 20" fill="none" xmlns="http://www.w3.org/2000/svg">
<path fill-rule="evenodd" clip-rule="evenodd" d="M9.99984 1.66699C5.39817 1.66699 1.6665 5.39783 1.6665 10.0003C1.6665 14.6028 5.39817 18.3337 9.99984 18.3337C14.6015 18.3337 18.3332 14.6028 18.3332 10.0003C18.3332 5.39783 14.6015 1.66699 9.99984 1.66699ZM9.99984 11.3297C9.539 11.3297 9.1665 10.9563 9.1665 10.4963V5.83383C9.1665 5.37383 9.539 5.00049 9.99984 5.00049C10.4607 5.00049 10.8332 5.37383 10.8332 5.83383V10.4963C10.8332 10.9563 10.4607 11.3297 9.99984 11.3297ZM10.0002 14.8389C10.6443 14.8389 11.1668 14.3164 11.1668 13.6722C11.1668 13.0281 10.6443 12.5056 10.0002 12.5056C9.35517 12.5056 8.83267 13.0281 8.83267 13.6722C8.83267 14.3164 9.35517 14.8389 10.0002 14.8389Z" fill="#FFAA00"/>
</svg>
