<svg width="32" height="32" viewBox="0 0 32 32" fill="none" xmlns="http://www.w3.org/2000/svg">
<path fill-rule="evenodd" clip-rule="evenodd" d="M0 16C0 7.1648 7.1648 0 16 0C24.8352 0 32 7.1648 32 16C32 24.8352 24.8352 32 16 32C7.1648 32 0 24.8352 0 16ZM19.3923 21.6569C20.0179 22.2825 21.0291 22.2825 21.6547 21.6569C22.2803 21.0313 22.2803 20.0201 21.6547 19.3945L18.2611 16.0009L21.6547 12.6073C22.2803 11.9817 22.2803 10.9689 21.6547 10.3449C21.0291 9.71934 20.0179 9.71934 19.3923 10.3449L15.9987 13.7385L12.6051 10.3449C11.9795 9.71934 10.9667 9.71934 10.3427 10.3449C9.71711 10.9689 9.71711 11.9817 10.3427 12.6073L13.7363 16.0009L10.3427 19.3945C9.71711 20.0201 9.71711 21.0313 10.3427 21.6569C10.9667 22.2825 11.9795 22.2825 12.6051 21.6569L15.9987 18.2633L19.3923 21.6569Z" fill="#FA4E3E"/>
</svg>
