<svg width="24" height="24" viewBox="0 0 24 24" fill="none" xmlns="http://www.w3.org/2000/svg">
<g clip-path="url(#clip0_597_5016)">
<circle cx="11.5" cy="11.5" r="10.5" fill="white"/>
<path d="M7.90756 8.01172C7.49138 8.01172 7.0752 8.28918 7.0752 8.70536C7.0752 9.12155 7.49138 9.399 7.90756 9.399C8.32375 9.399 8.60121 9.12155 8.60121 8.70536C8.60121 8.27183 8.32375 8.01172 7.90756 8.01172ZM13.5434 12.0348C13.2659 12.0348 13.0058 12.3296 13.0058 12.5898C13.0058 12.8846 13.2833 13.1447 13.5434 13.1447C13.9596 13.1447 14.237 12.8672 14.237 12.5898C14.237 12.3123 13.9596 12.0348 13.5434 12.0348ZM11.7573 9.399C12.1735 9.399 12.4509 9.1042 12.4509 8.70536C12.4509 8.28918 12.1735 8.01172 11.7573 8.01172C11.3411 8.01172 10.9249 8.28918 10.9249 8.70536C10.9249 9.12155 11.3411 9.399 11.7573 9.399ZM16.5607 12.0348C16.2833 12.0348 16.0232 12.3296 16.0232 12.5898C16.0232 12.8846 16.3006 13.1447 16.5607 13.1447C16.9769 13.1447 17.2544 12.8672 17.2544 12.5898C17.2544 12.3123 16.9769 12.0348 16.5607 12.0348Z" fill="#28C445"/>
<path d="M11.9653 0.0693359C5.35838 0.0693359 0 5.42772 0 12.0347C0 18.6416 5.35838 24 11.9653 24C18.5723 24 23.9306 18.6416 23.9306 12.0347C23.9306 5.42772 18.5723 0.0693359 11.9653 0.0693359ZM9.69364 15.104C9 15.104 8.44509 14.9653 7.78613 14.8092L5.87861 15.7803L6.41619 14.0982C5.04624 13.1271 4.21387 11.8612 4.21387 10.3526C4.21387 7.69939 6.69364 5.61847 9.69364 5.61847C12.3815 5.61847 14.7572 7.28321 15.2254 9.5202C15.052 9.50286 14.8786 9.48552 14.7052 9.48552C12.104 9.5202 10.0578 11.4797 10.0578 13.9075C10.0578 14.3063 10.1272 14.6878 10.2312 15.0693C10.0578 15.0867 9.86705 15.104 9.69364 15.104ZM17.8092 17.0462L18.2254 18.4335L16.7341 17.6011C16.1965 17.7399 15.6416 17.8786 15.0867 17.8786C12.4682 17.8786 10.4046 16.0751 10.4046 13.8381C10.3873 11.6185 12.4509 9.815 15.052 9.815C17.5318 9.815 19.7168 11.6358 19.7168 13.8555C19.7168 15.104 18.9017 16.2138 17.8092 17.0462Z" fill="#28C445"/>
</g>
<defs>
<clipPath id="clip0_597_5016">
<rect width="24" height="24" fill="white"/>
</clipPath>
</defs>
</svg>
