<svg width="116" height="18" viewBox="0 0 116 18" fill="none" xmlns="http://www.w3.org/2000/svg">
<path d="M5.712 13.104L4.416 16.896H0L6.168 0.240002H11.88L18 16.896H13.488L12.216 13.104H5.712ZM11.064 9.648L9.144 3.912H8.856L6.888 9.648H11.064Z" fill="url(#paint0_linear_1000_7826)"/>
<path d="M23.9051 0.240002V16.896H19.6571V0.240002H23.9051Z" fill="url(#paint1_linear_1000_7826)"/>
<path d="M37.7332 7.152H43.5413V10.8H37.7332V16.896H33.4852V0.240002H44.0452V3.912H37.7332V7.152Z" fill="url(#paint2_linear_1000_7826)"/>
<path d="M46.1079 8.568C46.1079 6.36 46.4039 4.632 46.9959 3.384C47.5879 2.12 48.4359 1.24 49.5399 0.744001C50.6599 0.248001 52.0839 0 53.8119 0C55.5559 0 56.9799 0.248001 58.0839 0.744001C59.2039 1.24 60.0519 2.12 60.6279 3.384C61.2199 4.632 61.5159 6.36 61.5159 8.568C61.5159 10.792 61.2199 12.528 60.6279 13.776C60.0519 15.024 59.2039 15.896 58.0839 16.392C56.9799 16.888 55.5559 17.136 53.8119 17.136C52.0839 17.136 50.6599 16.888 49.5399 16.392C48.4359 15.896 47.5879 15.024 46.9959 13.776C46.4039 12.528 46.1079 10.792 46.1079 8.568ZM53.8119 13.608C54.7079 13.608 55.3879 13.456 55.8519 13.152C56.3159 12.832 56.6359 12.32 56.8119 11.616C56.9879 10.912 57.0759 9.896 57.0759 8.568C57.0759 7.24 56.9879 6.216 56.8119 5.496C56.6359 4.776 56.3159 4.256 55.8519 3.936C55.3879 3.616 54.7079 3.456 53.8119 3.456C52.9319 3.456 52.2599 3.616 51.7959 3.936C51.3319 4.256 51.0119 4.776 50.8359 5.496C50.6599 6.216 50.5719 7.24 50.5719 8.568C50.5719 9.896 50.6599 10.912 50.8359 11.616C51.0119 12.32 51.3319 12.832 51.7959 13.152C52.2599 13.456 52.9319 13.608 53.8119 13.608Z" fill="url(#paint3_linear_1000_7826)"/>
<path d="M70.1085 11.088H68.7645V16.896H64.5165V0.240002H70.7805C72.9885 0.240002 74.6125 0.664001 75.6525 1.512C76.6925 2.36 77.2125 3.744 77.2125 5.664C77.2125 7.024 76.9645 8.104 76.4685 8.904C75.9885 9.704 75.2365 10.28 74.2125 10.632L78.7725 16.896H73.7565L70.1085 11.088ZM70.0605 7.992C71.1645 7.992 71.9325 7.832 72.3645 7.512C72.7965 7.176 73.0125 6.56 73.0125 5.664C73.0125 5.088 72.9165 4.648 72.7245 4.344C72.5485 4.04 72.2445 3.832 71.8125 3.72C71.3965 3.592 70.8125 3.528 70.0605 3.528H68.7645V7.992H70.0605Z" fill="url(#paint4_linear_1000_7826)"/>
<path d="M86.5461 11.304V0.240002H90.7941V10.944C90.7941 11.776 91.0101 12.416 91.4421 12.864C91.8741 13.296 92.6581 13.512 93.7941 13.512C94.9621 13.512 95.7621 13.28 96.1941 12.816C96.6261 12.352 96.8421 11.728 96.8421 10.944V0.240002H101.066V11.304C101.066 13.336 100.45 14.816 99.2181 15.744C97.9861 16.672 96.1781 17.136 93.7941 17.136C92.1781 17.136 90.8421 16.96 89.7861 16.608C88.7461 16.256 87.9461 15.656 87.3861 14.808C86.8261 13.96 86.5461 12.792 86.5461 11.304Z" fill="url(#paint5_linear_1000_7826)"/>
<path d="M104.023 16.56V12.888C104.583 13.064 105.295 13.216 106.159 13.344C107.039 13.472 107.863 13.536 108.631 13.536C109.335 13.536 109.863 13.488 110.215 13.392C110.583 13.28 110.839 13.112 110.983 12.888C111.127 12.648 111.199 12.312 111.199 11.88C111.199 11.528 111.135 11.248 111.007 11.04C110.879 10.816 110.623 10.616 110.239 10.44C109.855 10.264 109.279 10.088 108.511 9.912C107.279 9.624 106.343 9.296 105.703 8.928C105.063 8.56 104.615 8.08 104.359 7.488C104.103 6.88 103.975 6.064 103.975 5.04C103.975 3.248 104.511 1.96 105.583 1.176C106.655 0.392 108.223 0 110.287 0C111.983 0 113.415 0.200001 114.583 0.600001V4.032C114.199 3.888 113.583 3.76 112.735 3.648C111.887 3.52 111.135 3.456 110.479 3.456C109.615 3.456 108.999 3.568 108.631 3.792C108.263 4 108.079 4.368 108.079 4.896C108.079 5.216 108.143 5.464 108.271 5.64C108.399 5.816 108.639 5.976 108.991 6.12C109.359 6.264 109.927 6.432 110.695 6.624C112.055 6.96 113.071 7.352 113.743 7.8C114.415 8.232 114.863 8.768 115.087 9.408C115.327 10.032 115.447 10.896 115.447 12C115.447 13.712 114.935 15 113.911 15.864C112.903 16.712 111.215 17.136 108.847 17.136C107.967 17.136 107.095 17.08 106.231 16.968C105.383 16.856 104.647 16.72 104.023 16.56Z" fill="url(#paint6_linear_1000_7826)"/>
<defs>
<linearGradient id="paint0_linear_1000_7826" x1="1.44825" y1="12.614" x2="115.489" y2="11.557" gradientUnits="userSpaceOnUse">
<stop stop-color="#5779FF"/>
<stop offset="1" stop-color="#A47FFA"/>
<stop offset="1" stop-color="#A47FFA"/>
</linearGradient>
<linearGradient id="paint1_linear_1000_7826" x1="1.44825" y1="12.614" x2="115.489" y2="11.557" gradientUnits="userSpaceOnUse">
<stop stop-color="#5779FF"/>
<stop offset="1" stop-color="#A47FFA"/>
<stop offset="1" stop-color="#A47FFA"/>
</linearGradient>
<linearGradient id="paint2_linear_1000_7826" x1="1.44825" y1="12.614" x2="115.489" y2="11.557" gradientUnits="userSpaceOnUse">
<stop stop-color="#5779FF"/>
<stop offset="1" stop-color="#A47FFA"/>
<stop offset="1" stop-color="#A47FFA"/>
</linearGradient>
<linearGradient id="paint3_linear_1000_7826" x1="1.44825" y1="12.614" x2="115.489" y2="11.557" gradientUnits="userSpaceOnUse">
<stop stop-color="#5779FF"/>
<stop offset="1" stop-color="#A47FFA"/>
<stop offset="1" stop-color="#A47FFA"/>
</linearGradient>
<linearGradient id="paint4_linear_1000_7826" x1="1.44825" y1="12.614" x2="115.489" y2="11.557" gradientUnits="userSpaceOnUse">
<stop stop-color="#5779FF"/>
<stop offset="1" stop-color="#A47FFA"/>
<stop offset="1" stop-color="#A47FFA"/>
</linearGradient>
<linearGradient id="paint5_linear_1000_7826" x1="1.44825" y1="12.614" x2="115.489" y2="11.557" gradientUnits="userSpaceOnUse">
<stop stop-color="#5779FF"/>
<stop offset="1" stop-color="#A47FFA"/>
<stop offset="1" stop-color="#A47FFA"/>
</linearGradient>
<linearGradient id="paint6_linear_1000_7826" x1="1.44825" y1="12.614" x2="115.489" y2="11.557" gradientUnits="userSpaceOnUse">
<stop stop-color="#5779FF"/>
<stop offset="1" stop-color="#A47FFA"/>
<stop offset="1" stop-color="#A47FFA"/>
</linearGradient>
</defs>
</svg>
