<svg width="14" height="14" viewBox="0 0 14 14" fill="none" xmlns="http://www.w3.org/2000/svg">
<g clip-path="url(#clip0_640_5153)">
<path d="M2.82924 4.21981C2.73795 4.21981 2.64756 4.23779 2.56322 4.27272C2.47888 4.30766 2.40225 4.35886 2.3377 4.42341C2.27315 4.48796 2.22195 4.56459 2.18702 4.64893C2.15208 4.73327 2.1341 4.82366 2.1341 4.91494V11.1712C2.1341 11.2624 2.15208 11.3528 2.18702 11.4372C2.22195 11.5215 2.27315 11.5981 2.3377 11.6627C2.40225 11.7272 2.47888 11.7784 2.56322 11.8134C2.64756 11.8483 2.73795 11.8663 2.82924 11.8663H9.08544C9.17673 11.8663 9.26712 11.8483 9.35146 11.8134C9.4358 11.7784 9.51243 11.7272 9.57698 11.6627C9.64153 11.5981 9.69273 11.5215 9.72766 11.4372C9.7626 11.3528 9.78058 11.2624 9.78058 11.1712V4.91494C9.78058 4.82366 9.7626 4.73327 9.72766 4.64893C9.69273 4.56459 9.64153 4.48796 9.57698 4.42341C9.51243 4.35886 9.4358 4.30766 9.35146 4.27272C9.26712 4.23779 9.17673 4.21981 9.08544 4.21981H2.82924ZM2.82924 2.82954H9.08544C9.63853 2.82954 10.169 3.04925 10.56 3.44034C10.9511 3.83143 11.1708 4.36186 11.1708 4.91494V11.1712C11.1708 11.7242 10.9511 12.2547 10.56 12.6458C10.169 13.0368 9.63853 13.2566 9.08544 13.2566H2.82924C2.27615 13.2566 1.74572 13.0368 1.35464 12.6458C0.963547 12.2547 0.743835 11.7242 0.743835 11.1712V4.91494C0.743835 4.36186 0.963547 3.83143 1.35464 3.44034C1.74572 3.04925 2.27615 2.82954 2.82924 2.82954ZM3.52437 2.13441C3.34001 2.13441 3.1632 2.06117 3.03284 1.93081C2.90247 1.80045 2.82924 1.62364 2.82924 1.43927C2.82924 1.25491 2.90247 1.0781 3.03284 0.947741C3.1632 0.817378 3.34001 0.744141 3.52437 0.744141H9.78058C10.7024 0.744141 11.5864 1.11033 12.2382 1.76214C12.8901 2.41396 13.2562 3.29801 13.2562 4.21981V10.476C13.2562 10.6604 13.183 10.8372 13.0526 10.9676C12.9223 11.0979 12.7455 11.1712 12.5611 11.1712C12.3768 11.1712 12.1999 11.0979 12.0696 10.9676C11.9392 10.8372 11.866 10.6604 11.866 10.476V4.21981C11.866 3.94595 11.812 3.67477 11.7072 3.42176C11.6024 3.16875 11.4488 2.93886 11.2552 2.74521C11.0615 2.55156 10.8316 2.39795 10.5786 2.29315C10.3256 2.18835 10.0544 2.13441 9.78058 2.13441H3.52437Z" fill="#3A50FF"/>
</g>
<defs>
<clipPath id="clip0_640_5153">
<rect width="14" height="14" fill="white"/>
</clipPath>
</defs>
</svg>
