<svg width="14" height="14" viewBox="0 0 14 14" fill="none" xmlns="http://www.w3.org/2000/svg">
<g clip-path="url(#clip0_640_5060)">
<path d="M7.08887 0.769531C3.70612 0.769531 0.963867 3.51178 0.963867 6.89453C0.963867 10.2773 3.70612 13.0195 7.08887 13.0195C10.4716 13.0195 13.2139 10.2773 13.2139 6.89453C13.2139 3.51178 10.4716 0.769531 7.08887 0.769531ZM7.08887 11.7891C4.38569 11.7891 2.19434 9.59771 2.19434 6.89453C2.19434 4.19136 4.38569 2 7.08887 2C9.79204 2 11.9834 4.19136 11.9834 6.89453C11.9834 9.59771 9.79204 11.7891 7.08887 11.7891Z" fill="#3A50FF"/>
<path d="M8.45007 6.56582L6.41991 4.53566C6.17964 4.2954 5.7901 4.2954 5.54983 4.53566C5.30956 4.77593 5.30956 5.16547 5.54983 5.40574L7.14497 7.00086L5.54983 8.596C5.30956 8.83627 5.30956 9.22581 5.54983 9.46608C5.7901 9.70635 6.17964 9.70635 6.41991 9.46608L8.45007 7.4359C8.69034 7.19563 8.69034 6.80609 8.45007 6.56582Z" fill="#3A50FF"/>
</g>
<defs>
<clipPath id="clip0_640_5060">
<rect width="14" height="14" fill="white"/>
</clipPath>
</defs>
</svg>
