<svg width="16" height="16" viewBox="0 0 16 16" fill="none" xmlns="http://www.w3.org/2000/svg">
<path d="M7.9998 1.33203C11.6818 1.33203 14.6665 4.3167 14.6665 7.9987C14.6665 11.6807 11.6818 14.6654 7.9998 14.6654C4.3178 14.6654 1.33313 11.6807 1.33313 7.9987C1.33313 4.3167 4.3178 1.33203 7.9998 1.33203ZM2.66646 7.9987C2.66645 8.99665 2.94643 9.97458 3.47457 10.8213C4.00272 11.6681 4.75784 12.3496 5.65408 12.7886C6.55033 13.2275 7.55174 13.4061 8.54447 13.3042C9.5372 13.2023 10.4814 12.8239 11.2698 12.212L3.7858 4.72936C3.0586 5.66386 2.66462 6.8146 2.66646 7.9987ZM7.9998 2.66536C6.7678 2.66536 5.63313 3.08336 4.7298 3.78536L12.2138 11.2687C12.8257 10.4803 13.2041 9.536 13.306 8.54321C13.4079 7.55042 13.2292 6.54895 12.7902 5.65268C12.3512 4.75641 11.6695 4.00131 10.8227 3.47321C9.97583 2.94512 8.9978 2.66523 7.9998 2.66536Z" fill="#3A50FF"/>
</svg>
