<svg width="16" height="16" viewBox="0 0 16 16" fill="none" xmlns="http://www.w3.org/2000/svg">
<path d="M14.8496 8.32531L13.5308 7.00667C13.4355 6.91141 13.3106 6.86377 13.1857 6.86381C13.0608 6.86379 12.9359 6.91142 12.8407 7.00675L11.5201 8.32753C11.3295 8.51809 11.3295 8.82708 11.5201 9.01771C11.6154 9.11294 11.7403 9.1606 11.8652 9.1606C11.99 9.1606 12.1151 9.11294 12.2102 9.01763L12.7285 8.49926C12.4782 11.2388 10.1689 13.3921 7.36522 13.3921C4.39496 13.3921 1.9785 10.9757 1.9785 8.00543C1.9785 5.03517 4.39496 2.61864 7.36522 2.61864C8.80403 2.61864 10.1567 3.17894 11.1743 4.19638C11.3649 4.38702 11.6737 4.38702 11.8644 4.19638C12.055 4.00582 12.055 3.69683 11.8644 3.50627C10.6626 2.3044 9.06474 1.64258 7.36522 1.64258C3.85673 1.64258 1.00244 4.49695 1.00244 8.00543C1.00244 11.5138 3.85673 14.3682 7.36522 14.3682C10.6872 14.3682 13.4211 11.8088 13.7026 8.55871L14.1595 9.01556C14.2548 9.11079 14.3796 9.15846 14.5045 9.15846C14.6294 9.15846 14.7542 9.11079 14.8495 9.01548C15.0402 8.82492 15.0402 8.51593 14.8496 8.32531Z" fill="#3A50FF" stroke="#3A50FF" stroke-width="0.32"/>
<path d="M5.94705 7.74789V7.25992C5.94711 6.99037 5.72862 6.77189 5.45907 6.77194C5.18947 6.77194 4.97109 6.99032 4.97109 7.25992L4.97109 7.74789C4.97103 8.01744 5.18952 8.23593 5.45907 8.23587C5.59386 8.23587 5.71586 8.18127 5.80415 8.09299C5.89244 8.0047 5.94704 7.88269 5.94705 7.74789Z" fill="#3A50FF" stroke="#3A50FF" stroke-width="0.32"/>
<path d="M8.87539 7.25992V7.74789C8.87533 8.01744 9.09382 8.23593 9.36337 8.23587C9.49816 8.23587 9.62016 8.18127 9.70845 8.09298C9.79674 8.00469 9.85133 7.88269 9.85133 7.7479L9.85133 7.25993C9.85139 6.99038 9.6329 6.7719 9.36337 6.77196C9.09376 6.77194 8.87539 6.99032 8.87539 7.25992Z" fill="#3A50FF" stroke="#3A50FF" stroke-width="0.32"/>
<path d="M6.13726 9.59154C6.31194 9.87383 6.7912 10.3518 7.48021 10.3517C7.98094 10.3516 8.37488 10.0986 8.62056 9.85288C8.71109 9.76234 8.78148 9.67276 8.8296 9.59732C8.97327 9.37209 8.90745 9.07599 8.68407 8.92945C8.46081 8.78303 8.15875 8.84538 8.00997 9.06751C8.00757 9.07071 7.79851 9.37569 7.48015 9.37569C7.17045 9.37557 6.97752 9.093 6.96459 9.07357C6.82171 8.84801 6.5233 8.77898 6.29566 8.91978C6.06666 9.06105 5.99538 9.36227 6.13726 9.59154Z" fill="#3A50FF" stroke="#3A50FF" stroke-width="0.32"/>
</svg>
