<svg width="24" height="24" viewBox="0 0 24 24" fill="none" xmlns="http://www.w3.org/2000/svg">
<g opacity="0.5">
<path d="M9.651 13.1242L14.423 9.13717L8.114 11.9492L4.645 9.29717C4.5688 9.23896 4.51095 9.16006 4.47834 9.06988C4.44574 8.97971 4.43975 8.88206 4.46109 8.78857C4.48243 8.69509 4.53021 8.60971 4.59872 8.54262C4.66723 8.47553 4.75359 8.42955 4.8475 8.41017L18.9065 5.51217C18.9888 5.49526 19.0741 5.49939 19.1545 5.52417C19.2348 5.54894 19.3076 5.59357 19.3661 5.65393C19.4246 5.71428 19.4669 5.78842 19.4892 5.86947C19.5115 5.95053 19.513 6.03589 19.4935 6.11767L16.7385 17.6577C16.7192 17.7387 16.68 17.8137 16.6243 17.8757C16.5687 17.9378 16.4984 17.9849 16.4199 18.0129C16.3414 18.0409 16.2572 18.0488 16.1749 18.0359C16.0925 18.023 16.0147 17.9898 15.9485 17.9392L9.651 13.1242ZM8.341 17.1092L9.0285 13.8912L11.7235 15.9717L9.097 17.6357C9.01382 17.6884 8.91693 17.7153 8.81849 17.7132C8.72004 17.711 8.62443 17.6798 8.54363 17.6236C8.46284 17.5673 8.40046 17.4884 8.36432 17.3968C8.32819 17.3052 8.3199 17.205 8.3405 17.1087L8.341 17.1092Z" fill="white"/>
</g>
</svg>
