<svg width="40" height="37" viewBox="0 0 40 37" fill="none" xmlns="http://www.w3.org/2000/svg">
<path d="M37 1.93778C36.063 1.15433 34.9651 0.586762 33.7841 0.275386C32.6031 -0.0359893 31.3681 -0.0835396 30.1667 0.136112L23.7967 1.29278C22.326 1.56285 20.9888 2.31949 20 3.44111C19.0086 2.31755 17.6676 1.56074 16.1933 1.29278L9.83333 0.136112C8.63193 -0.0837318 7.39689 -0.0368046 6.21563 0.273571C5.03437 0.583947 3.93577 1.15018 2.99761 1.9322C2.05944 2.71422 1.30464 3.69289 0.786637 4.79896C0.26863 5.90502 8.13541e-05 7.11142 0 8.33278L0 26.3211C9.57597e-05 28.2724 0.684961 30.1619 1.93522 31.66C3.18548 33.1582 4.92185 34.1702 6.84167 34.5194L17.3183 36.4244C19.0916 36.7467 20.9084 36.7467 22.6817 36.4244L33.1667 34.5194C35.0849 34.1684 36.8194 33.1557 38.068 31.6577C39.3166 30.1597 40.0003 28.2712 40 26.3211V8.33278C40.0008 7.11185 39.7323 5.90578 39.2138 4.80043C38.6952 3.69509 37.9394 2.71767 37 1.93778ZM18.3333 33.2128C18.1933 33.1928 18.0533 33.1694 17.9133 33.1444L7.43833 31.2411C6.28627 31.0315 5.24432 30.4242 4.49415 29.5251C3.74397 28.626 3.33316 27.4921 3.33333 26.3211V8.33278C3.33333 7.0067 3.86012 5.73493 4.7978 4.79724C5.73548 3.85956 7.00725 3.33278 8.33333 3.33278C8.63515 3.3335 8.93632 3.36083 9.23333 3.41444L15.6 4.58111C16.366 4.72128 17.0588 5.12523 17.5581 5.72285C18.0574 6.32047 18.3316 7.07404 18.3333 7.85278V33.2128ZM36.6667 26.3211C36.6668 27.4921 36.256 28.626 35.5059 29.5251C34.7557 30.4242 33.7137 31.0315 32.5617 31.2411L22.0867 33.1444C21.9467 33.1694 21.8067 33.1928 21.6667 33.2128V7.85278C21.6665 7.07213 21.9404 6.3162 22.4405 5.71679C22.9407 5.11738 23.6353 4.71251 24.4033 4.57278L30.7717 3.40611C31.4929 3.2749 32.2341 3.30386 32.9428 3.49096C33.6516 3.67806 34.3106 4.01871 34.873 4.48879C35.4355 4.95886 35.8877 5.54687 36.1977 6.21115C36.5076 6.87543 36.6678 7.59974 36.6667 8.33278V26.3211Z" fill="currentColor"/>
</svg>
