<svg width="72" height="72" viewBox="0 0 72 72" fill="none" xmlns="http://www.w3.org/2000/svg">
<path d="M38.0605 27.6119C38.0605 28.6711 38.4813 29.6869 39.2303 30.4359C39.9793 31.1849 40.9951 31.6057 42.0543 31.6057C43.1135 31.6057 44.1293 31.1849 44.8783 30.4359C45.6273 29.6869 46.048 28.6711 46.048 27.6119C46.048 26.5527 45.6273 25.5369 44.8783 24.7879C44.1293 24.0389 43.1135 23.6182 42.0543 23.6182C40.9951 23.6182 39.9793 24.0389 39.2303 24.7879C38.4813 25.5369 38.0605 26.5527 38.0605 27.6119Z" fill="url(#paint0_linear_611_3958)"/>
<path d="M28.1816 27.6119C28.1816 28.2422 28.432 28.8467 28.8777 29.2924C29.3234 29.7381 29.9279 29.9885 30.5582 29.9885C31.1885 29.9885 31.793 29.7381 32.2387 29.2924C32.6844 28.8467 32.9348 28.2422 32.9348 27.6119C32.9348 26.9816 32.6844 26.3771 32.2387 25.9314C31.793 25.4857 31.1885 25.2354 30.5582 25.2354C29.9279 25.2354 29.3234 25.4857 28.8777 25.9314C28.432 26.3771 28.1816 26.9816 28.1816 27.6119Z" fill="url(#paint1_linear_611_3958)"/>
<path d="M16.6369 58.2256C11.8064 58.2256 7.92519 56.8053 5.92128 53.4795C3.29863 49.1201 4.89472 43.01 10.4143 36.267C10.7377 35.8873 11.7643 34.7412 13.0158 34.1576C14.5908 33.4194 16.4611 34.1014 17.1994 35.6764C17.9307 37.2514 17.2557 39.1217 15.6807 39.86C15.6314 39.9022 15.3502 40.1834 15.2588 40.2959C11.0471 45.4428 10.4986 48.874 11.3213 50.2311C13.3322 53.5779 25.9463 52.6076 41.1127 43.467C48.1299 39.2342 54.0502 34.2069 57.7768 29.3201C60.7158 25.46 61.9885 21.9092 61.0041 20.2779C60.1111 18.7944 56.94 18.2037 52.7353 18.7311C51.8846 18.8365 50.9775 18.9912 50.0564 19.1881C48.3479 19.5467 46.6885 18.4569 46.3299 16.7553C45.9713 15.0537 47.0611 13.3873 48.7627 13.0287C49.8596 12.7967 50.9283 12.6209 51.9549 12.4873C60.9479 11.3553 64.7728 14.3365 66.3971 17.0365C68.865 21.1287 67.5783 26.8522 62.783 33.1381C58.5854 38.6436 52.0393 44.2194 44.3541 48.8529C35.2205 54.3584 24.6174 58.2256 16.6369 58.2256Z" fill="url(#paint2_linear_611_3958)"/>
<path d="M37.252 61.5024C23.1613 61.5024 11.6934 50.0345 11.6934 35.9438C11.6934 21.8532 23.1613 10.3853 37.252 10.3853C51.3426 10.3853 62.8105 21.8532 62.8105 35.9438C62.8105 50.0345 51.3496 61.5024 37.252 61.5024ZM37.252 16.6782C26.6277 16.6782 17.9863 25.3196 17.9863 35.9438C17.9863 46.5681 26.6277 55.2095 37.252 55.2095C47.8762 55.2095 56.5176 46.5681 56.5176 35.9438C56.5176 25.3196 47.8762 16.6782 37.252 16.6782Z" fill="url(#paint3_linear_611_3958)"/>
<defs>
<linearGradient id="paint0_linear_611_3958" x1="38.1607" y1="29.4979" x2="46.0516" y2="29.487" gradientUnits="userSpaceOnUse">
<stop stop-color="#5779FF"/>
<stop offset="1" stop-color="#A47FFA"/>
<stop offset="1" stop-color="#A47FFA"/>
</linearGradient>
<linearGradient id="paint1_linear_611_3958" x1="28.2413" y1="28.7342" x2="32.9369" y2="28.7277" gradientUnits="userSpaceOnUse">
<stop stop-color="#5779FF"/>
<stop offset="1" stop-color="#A47FFA"/>
<stop offset="1" stop-color="#A47FFA"/>
</linearGradient>
<linearGradient id="paint2_linear_611_3958" x1="5.47894" y1="46.0908" x2="67.6506" y2="45.9737" gradientUnits="userSpaceOnUse">
<stop stop-color="#5779FF"/>
<stop offset="1" stop-color="#A47FFA"/>
<stop offset="1" stop-color="#A47FFA"/>
</linearGradient>
<linearGradient id="paint3_linear_611_3958" x1="12.3346" y1="48.0133" x2="62.8334" y2="47.9438" gradientUnits="userSpaceOnUse">
<stop stop-color="#5779FF"/>
<stop offset="1" stop-color="#A47FFA"/>
<stop offset="1" stop-color="#A47FFA"/>
</linearGradient>
</defs>
</svg>
