<svg width="36" height="40" viewBox="0 0 36 40" fill="none" xmlns="http://www.w3.org/2000/svg">
<path d="M35.7257 38.1911H35.7276C35.7248 38.1622 35.7202 38.1338 35.7173 38.1048L35.7116 38.047C35.7116 37.9071 35.6918 37.7727 35.6616 37.642C34.8477 31.2726 30.6994 25.9534 25.0273 23.5042C28.3102 21.2486 30.4653 17.46 30.4653 13.1647C30.4653 6.24887 24.8803 0.642578 17.9909 0.642578C11.1014 0.642578 5.51644 6.24891 5.51644 13.1647C5.51644 17.4615 7.67304 21.2513 10.9578 23.5065C5.33611 25.9364 1.21087 31.1851 0.348728 37.4816C0.288905 37.6603 0.249023 37.8481 0.249023 38.0469L0.263261 38.1907C0.263261 38.191 0.263261 38.191 0.263261 38.191L0.265385 38.2126C0.265385 39.1989 1.06176 39.9983 2.04398 39.9983C3.02619 39.9983 3.82249 39.1989 3.82249 38.2126L3.82033 38.191H3.85659C4.68683 31.3654 10.3041 26.0257 17.2377 25.6621C17.487 25.677 17.7377 25.6868 17.9909 25.6868C18.2445 25.6868 18.4957 25.677 18.7455 25.6618C25.6796 26.0247 31.2977 31.3649 32.1281 38.191H32.1682L32.1703 38.2126C32.1703 39.1989 32.9667 39.9983 33.9494 39.9983C34.9316 39.9983 35.728 39.1989 35.728 38.2126L35.7257 38.1911ZM9.07744 13.1684C9.07744 8.22845 13.0664 4.22371 17.9875 4.22371C22.9087 4.22371 26.898 8.22848 26.898 13.1684C26.898 17.8323 23.3407 21.6584 18.8016 22.0717C18.5343 22.0596 18.2656 22.0525 17.9952 22.0525C17.7214 22.0525 17.4491 22.0597 17.1782 22.0719C12.6369 21.6607 9.07744 17.834 9.07744 13.1684Z" fill="currentColor"/>
</svg>
