<svg width="40" height="40" viewBox="0 0 40 40" fill="none" xmlns="http://www.w3.org/2000/svg">
<g clip-path="url(#clip0_611_5688)">
<path d="M11.6667 0H6.66667C4.89856 0 3.20286 0.702379 1.95262 1.95262C0.702379 3.20286 0 4.89856 0 6.66667L0 11.6667C0 13.4348 0.702379 15.1305 1.95262 16.3807C3.20286 17.631 4.89856 18.3333 6.66667 18.3333H11.6667C13.4348 18.3333 15.1305 17.631 16.3807 16.3807C17.631 15.1305 18.3333 13.4348 18.3333 11.6667V6.66667C18.3333 4.89856 17.631 3.20286 16.3807 1.95262C15.1305 0.702379 13.4348 0 11.6667 0ZM15 11.6667C15 12.5507 14.6488 13.3986 14.0237 14.0237C13.3986 14.6488 12.5507 15 11.6667 15H6.66667C5.78261 15 4.93477 14.6488 4.30964 14.0237C3.68452 13.3986 3.33333 12.5507 3.33333 11.6667V6.66667C3.33333 5.78261 3.68452 4.93477 4.30964 4.30964C4.93477 3.68452 5.78261 3.33333 6.66667 3.33333H11.6667C12.5507 3.33333 13.3986 3.68452 14.0237 4.30964C14.6488 4.93477 15 5.78261 15 6.66667V11.6667Z" fill="currentColor"/>
<path d="M33.3327 0H28.3327C26.5646 0 24.8689 0.702379 23.6186 1.95262C22.3684 3.20286 21.666 4.89856 21.666 6.66667V11.6667C21.666 13.4348 22.3684 15.1305 23.6186 16.3807C24.8689 17.631 26.5646 18.3333 28.3327 18.3333H33.3327C35.1008 18.3333 36.7965 17.631 38.0467 16.3807C39.297 15.1305 39.9993 13.4348 39.9993 11.6667V6.66667C39.9993 4.89856 39.297 3.20286 38.0467 1.95262C36.7965 0.702379 35.1008 0 33.3327 0ZM36.666 11.6667C36.666 12.5507 36.3148 13.3986 35.6897 14.0237C35.0646 14.6488 34.2167 15 33.3327 15H28.3327C27.4486 15 26.6008 14.6488 25.9757 14.0237C25.3505 13.3986 24.9993 12.5507 24.9993 11.6667V6.66667C24.9993 5.78261 25.3505 4.93477 25.9757 4.30964C26.6008 3.68452 27.4486 3.33333 28.3327 3.33333H33.3327C34.2167 3.33333 35.0646 3.68452 35.6897 4.30964C36.3148 4.93477 36.666 5.78261 36.666 6.66667V11.6667Z" fill="currentColor"/>
<path d="M11.6667 21.6665H6.66667C4.89856 21.6665 3.20286 22.3689 1.95262 23.6191C0.702379 24.8694 0 26.5651 0 28.3332L0 33.3332C0 35.1013 0.702379 36.797 1.95262 38.0472C3.20286 39.2975 4.89856 39.9998 6.66667 39.9998H11.6667C13.4348 39.9998 15.1305 39.2975 16.3807 38.0472C17.631 36.797 18.3333 35.1013 18.3333 33.3332V28.3332C18.3333 26.5651 17.631 24.8694 16.3807 23.6191C15.1305 22.3689 13.4348 21.6665 11.6667 21.6665ZM15 33.3332C15 34.2172 14.6488 35.0651 14.0237 35.6902C13.3986 36.3153 12.5507 36.6665 11.6667 36.6665H6.66667C5.78261 36.6665 4.93477 36.3153 4.30964 35.6902C3.68452 35.0651 3.33333 34.2172 3.33333 33.3332V28.3332C3.33333 27.4491 3.68452 26.6013 4.30964 25.9761C4.93477 25.351 5.78261 24.9998 6.66667 24.9998H11.6667C12.5507 24.9998 13.3986 25.351 14.0237 25.9761C14.6488 26.6013 15 27.4491 15 28.3332V33.3332Z" fill="currentColor"/>
<path d="M33.3327 21.6665H28.3327C26.5646 21.6665 24.8689 22.3689 23.6186 23.6191C22.3684 24.8694 21.666 26.5651 21.666 28.3332V33.3332C21.666 35.1013 22.3684 36.797 23.6186 38.0472C24.8689 39.2975 26.5646 39.9998 28.3327 39.9998H33.3327C35.1008 39.9998 36.7965 39.2975 38.0467 38.0472C39.297 36.797 39.9993 35.1013 39.9993 33.3332V28.3332C39.9993 26.5651 39.297 24.8694 38.0467 23.6191C36.7965 22.3689 35.1008 21.6665 33.3327 21.6665ZM36.666 33.3332C36.666 34.2172 36.3148 35.0651 35.6897 35.6902C35.0646 36.3153 34.2167 36.6665 33.3327 36.6665H28.3327C27.4486 36.6665 26.6008 36.3153 25.9757 35.6902C25.3505 35.0651 24.9993 34.2172 24.9993 33.3332V28.3332C24.9993 27.4491 25.3505 26.6013 25.9757 25.9761C26.6008 25.351 27.4486 24.9998 28.3327 24.9998H33.3327C34.2167 24.9998 35.0646 25.351 35.6897 25.9761C36.3148 26.6013 36.666 27.4491 36.666 28.3332V33.3332Z" fill="currentColor"/>
</g>
<defs>
<clipPath id="clip0_611_5688">
<rect width="40" height="40" fill="currentColor"/>
</clipPath>
</defs>
</svg>
