<svg width="40" height="40" viewBox="0 0 40 40" fill="none" xmlns="http://www.w3.org/2000/svg">
<path d="M38.535 15.115L25.8934 2.47169C24.3288 0.91167 22.2095 0.0356445 20 0.0356445C17.7906 0.0356445 15.6713 0.91167 14.1067 2.47169L1.46502 15.115C0.999062 15.578 0.629637 16.1289 0.378158 16.7357C0.126679 17.3425 -0.00185067 17.9932 2.01325e-05 18.65V35.0117C2.01325e-05 36.3378 0.526804 37.6095 1.46449 38.5472C2.40217 39.4849 3.67394 40.0117 5.00002 40.0117H35C36.3261 40.0117 37.5979 39.4849 38.5356 38.5472C39.4732 37.6095 40 36.3378 40 35.0117V18.65C40.0019 17.9932 39.8734 17.3425 39.6219 16.7357C39.3704 16.1289 39.001 15.578 38.535 15.115ZM25 36.6784H15V30.1217C15 28.7956 15.5268 27.5238 16.4645 26.5862C17.4022 25.6485 18.6739 25.1217 20 25.1217C21.3261 25.1217 22.5979 25.6485 23.5356 26.5862C24.4732 27.5238 25 28.7956 25 30.1217V36.6784ZM36.6667 35.0117C36.6667 35.4537 36.4911 35.8776 36.1785 36.1902C35.866 36.5028 35.442 36.6784 35 36.6784H28.3334V30.1217C28.3334 27.9116 27.4554 25.7919 25.8926 24.2291C24.3298 22.6663 22.2102 21.7884 20 21.7884C17.7899 21.7884 15.6703 22.6663 14.1075 24.2291C12.5447 25.7919 11.6667 27.9116 11.6667 30.1217V36.6784H5.00002C4.55799 36.6784 4.13407 36.5028 3.82151 36.1902C3.50895 35.8776 3.33335 35.4537 3.33335 35.0117V18.65C3.3349 18.2083 3.51034 17.785 3.82169 17.4717L16.4634 4.83335C17.4029 3.89824 18.6745 3.37326 20 3.37326C21.3256 3.37326 22.5972 3.89824 23.5367 4.83335L36.1784 17.4767C36.4885 17.7888 36.6638 18.2101 36.6667 18.65V35.0117Z" fill="currentColor"/>
</svg>
